<svg xmlns="http://www.w3.org/2000/svg" viewBox="0 0 101 36" fill="none">
  <path d="M14.2188 35.6524H0.109131V0.461914H14.2188V3.83774H3.48496V32.2766H14.2188V35.6524Z" fill="#44bea4"/>
  <path d="M100.559 35.6524H86.4512V32.2766H97.1836V3.83774H86.4512V0.461914H100.559V35.6524Z" fill="#44bea4"/>
  <path d="M24.9837 25.1563H20.9137V23.6859H20.8655C20.1785 25.009 18.487 25.6224 16.8933 25.6224C12.5783 25.6224 10.0538 22.2395 10.0538 18.3409C10.0538 13.88 13.2653 11.085 16.8933 11.085C19.1231 11.085 20.374 12.1644 20.8655 12.9974H20.9137V11.551H24.9837V25.1563ZM17.5067 21.823C20.0552 21.823 20.9137 19.6655 20.9137 18.3409C20.9137 16.6991 19.7861 14.8844 17.4812 14.8844C15.1764 14.8844 14.1238 16.845 14.1238 18.3905C14.1238 19.6655 15.0559 21.823 17.5067 21.823Z" fill="white"/>
  <path d="M27.9274 11.551H31.7523V12.9974H31.8018C32.1447 12.3358 32.8558 11.085 35.2088 11.085V15.179C33.3205 15.2272 31.9973 15.6196 31.9973 17.6794V25.1563H27.9274V11.551Z" fill="white"/>
  <path d="M37.3665 11.551H41.1659V12.9974H41.2154C41.6319 12.3358 42.4904 11.085 44.9171 11.085C46.2176 11.085 47.6639 11.6247 48.3992 12.2622C49.1344 12.8997 49.9688 13.9791 49.9688 16.6495V25.1563H45.8988V17.7289C45.8988 16.7727 45.8988 14.9099 43.7654 14.9099C41.4364 14.9099 41.4364 16.9201 41.4364 17.7516V25.1563H37.3665V11.551Z" fill="white"/>
  <path d="M56.9329 10.1049H52.8643V7.0166H56.9329V10.1049ZM56.9329 25.1565H52.8643V11.5512H56.9329V25.1565Z" fill="white"/>
  <path d="M73.6265 19.9842C72.8912 23.0724 70.1699 25.5969 66.4938 25.5969C62.3742 25.5969 59.2123 22.3613 59.2123 18.3168C59.2123 14.2723 62.326 11.0835 66.3946 11.0835C69.9985 11.0835 72.9153 13.462 73.601 16.7953H69.4828C69.0408 15.8632 68.232 14.8829 66.5405 14.8829C64.604 14.7851 63.3049 16.3789 63.3049 18.3395C63.3049 20.3001 64.6054 21.796 66.5405 21.796C68.232 21.796 69.0408 20.8157 69.4828 19.9828H73.6251L73.6265 19.9842Z" fill="white"/>
  <path d="M90.1529 25.1563H86.083V23.6859H86.0348C85.3491 25.009 83.6563 25.6224 82.064 25.6224C77.7489 25.6224 75.2231 22.2395 75.2231 18.3409C75.2231 13.88 78.4346 11.085 82.064 11.085C84.2938 11.085 85.5432 12.1644 86.0348 12.9974H86.083V11.551H90.1529V25.1563ZM82.676 21.823C85.2259 21.823 86.083 19.6655 86.083 18.3409C86.083 16.6991 84.9553 14.8844 82.6505 14.8844C80.3456 14.8844 79.2931 16.845 79.2931 18.3905C79.2931 19.6655 80.2238 21.823 82.6745 21.823H82.676Z" fill="white"/>
</svg>
